<?xml version="1.0" encoding="UTF-8"?><svg xmlns="http://www.w3.org/2000/svg" xmlns:svg="http://www.w3.org/2000/svg" xmlns:syntaxdiagram2svg="http://www.moldflow.com/namespace/2008/syntaxdiagram2svg" xmlns:xlink="http://www.w3.org/1999/xlink" contentScriptType="text/ecmascript" zoomAndPan="magnify" contentStyleType="text/css" version="1.0" width="694.4867153167725px" preserveAspectRatio="xMidYMid meet" viewBox="0 0 694.4867153167725 281.8958315849304" height="281.8958315849304px" class="syntaxdiagram"><svg:defs xmlns="http://www.w3.org/1999/xhtml"><svg:style type="text/css" xml:space="preserve">
.arrow, .syntaxarrow { fill: none; stroke: black; }
.arrowheadStartEnd, .arrowheadRepSep, .arrowheadRepSepReturn { stroke: black; fill: black; }
.arrowheadSeq, .arrowheadStartChoice, .arrowheadAfterChoice, .arrowheadStartRepGroup, .arrowheadEndRepGroup, .arrowheadRev { stroke: none; fill: none; }
rect { fill: none; stroke: none; }
rect.fragref,rect.syntaxfragref { fill: none; stroke: black; }
text {
fill: #000000;
fill-opacity: 1;
font-family: IBM Plex Sans,Arial Unicode MS,Arial,Helvetica;
font-style: normal;
font-weight: normal;
font-size: 8pt;
stroke: #000000;
stroke-width: 0.1;
}
text.var, text.syntaxvar {font-style:italic;}
</svg:style></svg:defs><svg:script xmlns="http://www.w3.org/1999/xhtml" type="text/ecmascript" xlink:href="../js/syntaxdiagram-svg/constants.js" xlink:type="simple" xlink:actuate="onLoad" xlink:show="other"/><svg:script xmlns="http://www.w3.org/1999/xhtml" type="text/ecmascript" xlink:href="../js/syntaxdiagram-svg/diagram.js" xlink:type="simple" xlink:actuate="onLoad" xlink:show="other"/><svg:script xmlns="http://www.w3.org/1999/xhtml" type="text/ecmascript" xlink:href="../js/syntaxdiagram-svg/sequence.js" xlink:type="simple" xlink:actuate="onLoad" xlink:show="other"/><svg:script xmlns="http://www.w3.org/1999/xhtml" type="text/ecmascript" xlink:href="../js/syntaxdiagram-svg/loop.js" xlink:type="simple" xlink:actuate="onLoad" xlink:show="other"/><svg:script xmlns="http://www.w3.org/1999/xhtml" type="text/ecmascript" xlink:href="../js/syntaxdiagram-svg/decision.js" xlink:type="simple" xlink:actuate="onLoad" xlink:show="other"/><svg:script xmlns="http://www.w3.org/1999/xhtml" type="text/ecmascript" xlink:href="../js/syntaxdiagram-svg/revdecision.js" xlink:type="simple" xlink:actuate="onLoad" xlink:show="other"/><svg:script xmlns="http://www.w3.org/1999/xhtml" type="text/ecmascript" xlink:href="../js/syntaxdiagram-svg/boxed.js" xlink:type="simple" xlink:actuate="onLoad" xlink:show="other"/><svg:script xmlns="http://www.w3.org/1999/xhtml" type="text/ecmascript" xlink:href="../js/syntaxdiagram-svg/unboxed.js" xlink:type="simple" xlink:actuate="onLoad" xlink:show="other"/><svg:script xmlns="http://www.w3.org/1999/xhtml" type="text/ecmascript" xlink:href="../js/syntaxdiagram-svg/text.js" xlink:type="simple" xlink:actuate="onLoad" xlink:show="other"/><svg:script xmlns="http://www.w3.org/1999/xhtml" type="text/ecmascript" xlink:href="../js/syntaxdiagram-svg/void.js" xlink:type="simple" xlink:actuate="onLoad" xlink:show="other"/><svg:script xmlns="http://www.w3.org/1999/xhtml" type="text/ecmascript" xlink:href="../js/syntaxdiagram-svg/notecontainer.js" xlink:type="simple" xlink:actuate="onLoad" xlink:show="other"/><svg:script xmlns="http://www.w3.org/1999/xhtml" type="text/ecmascript" xlink:href="../js/syntaxdiagram-svg/note.js" xlink:type="simple" xlink:actuate="onLoad" xlink:show="other"/><svg:script xmlns="http://www.w3.org/1999/xhtml" type="text/ecmascript" xlink:href="../js/syntaxdiagram-svg/main.js" xlink:type="simple" xlink:actuate="onLoad" xlink:show="other"/><svg:g xmlns="http://www.w3.org/1999/xhtml" transform="translate(5,5)" syntaxdiagram2svg:heightBelow="276.8958315849304" syntaxdiagram2svg:dispatch="diagram" syntaxdiagram2svg:heightAbove="5" syntaxdiagram2svg:width="694.4867153167725" class="diagram" xml:base="..//"><svg:g syntaxdiagram2svg:role="forward" transform="translate(10,28.652777671813965)" syntaxdiagram2svg:heightBelow="8.760416984558105" syntaxdiagram2svg:dispatch="boxed" syntaxdiagram2svg:heightAbove="8.572916984558105" syntaxdiagram2svg:width="99.36907386779785" class="boxed kwd" syntaxdiagram2svg:element="kwd" syntaxdiagram2svg:row="0"><svg:g syntaxdiagram2svg:heightAbove="4.5729169845581055" syntaxdiagram2svg:heightBelow="4.7604169845581055" syntaxdiagram2svg:width="91.36907386779785" class="text" syntaxdiagram2svg:dispatch="text" transform="translate(4,3)"><svg:text class="kwd">COMMAND_NAME</svg:text></svg:g><rect xmlns="http://www.w3.org/2000/svg" rx="3" x="0" width="99.36907386779785" height="17.33333396911621" y="-8.572916984558105" class="syntaxkwd"/></svg:g><svg:g syntaxdiagram2svg:role="forward" transform="translate(124.36907386779785,28.652777671813965)" syntaxdiagram2svg:heightBelow="9.131944179534912" syntaxdiagram2svg:dispatch="boxed" syntaxdiagram2svg:heightAbove="8.892361164093018" syntaxdiagram2svg:width="96.31715087890625" class="boxed var" syntaxdiagram2svg:element="var" syntaxdiagram2svg:row="0"><svg:g syntaxdiagram2svg:heightAbove="4.892361164093018" syntaxdiagram2svg:heightBelow="5.131944179534912" syntaxdiagram2svg:width="88.31715087890625" class="text" syntaxdiagram2svg:dispatch="text" transform="translate(4,3)"><svg:text class="var">required_variable</svg:text></svg:g><rect xmlns="http://www.w3.org/2000/svg" rx="3" x="0" width="96.31715087890625" height="18.02430534362793" y="-8.892361164093018" class="syntaxvar"/></svg:g><svg:g syntaxdiagram2svg:role="forward" transform="translate(235.6862247467041,28.652777671813965)" syntaxdiagram2svg:heightBelow="28.652778148651123" syntaxdiagram2svg:dispatch="decision" syntaxdiagram2svg:heightAbove="5" syntaxdiagram2svg:width="211.26392059326173" class="groupseq" syntaxdiagram2svg:row="0"><svg:g syntaxdiagram2svg:role="straight" syntaxdiagram2svg:dispatch="void"/><svg:g syntaxdiagram2svg:role="downward" transform="translate(20,19.892361164093018)" syntaxdiagram2svg:heightBelow="8.760416984558105" syntaxdiagram2svg:dispatch="sequence" syntaxdiagram2svg:heightAbove="8.892361164093018" syntaxdiagram2svg:width="171.26392059326173" class="groupseq"><svg:g syntaxdiagram2svg:role="forward" transform="translate(0,0)" syntaxdiagram2svg:heightBelow="8.760416984558105" syntaxdiagram2svg:dispatch="boxed" syntaxdiagram2svg:heightAbove="8.892361164093018" syntaxdiagram2svg:width="171.26392059326173" class="boxed groupcomp" syntaxdiagram2svg:element="groupcomp"><svg:g syntaxdiagram2svg:role="forward" transform="translate(4,0)" syntaxdiagram2svg:heightBelow="4.7604169845581055" syntaxdiagram2svg:dispatch="unboxed" syntaxdiagram2svg:heightAbove="4.892361164093018" syntaxdiagram2svg:width="163.26392059326173" class="unboxed kwd" syntaxdiagram2svg:element="kwd"><svg:g syntaxdiagram2svg:heightAbove="4.5729169845581055" syntaxdiagram2svg:heightBelow="4.7604169845581055" syntaxdiagram2svg:width="118.75310783386232" class="text" syntaxdiagram2svg:dispatch="text" transform="translate(0,3)"><svg:text class="kwd">OPTIONAL_KEYWORD=</svg:text></svg:g><svg:g syntaxdiagram2svg:heightAbove="4.892361164093018" syntaxdiagram2svg:heightBelow="3.128471851348877" syntaxdiagram2svg:width="44.510812759399414" class="text" syntaxdiagram2svg:dispatch="text" transform="translate(118.75310783386232,3)"><svg:text class="var" syntaxdiagram2svg:extendwidth="2"> variable</svg:text></svg:g></svg:g><rect xmlns="http://www.w3.org/2000/svg" rx="3" x="0" width="171.26392059326173" height="17.652778148651123" y="-8.892361164093018" class="syntaxgroupcomp"/></svg:g></svg:g><line xmlns="http://www.w3.org/2000/svg" y2="0" x1="0" x2="105.63196029663087" class="arrow" y1="0"/><line xmlns="http://www.w3.org/2000/svg" y2="0" x1="105.63196029663087" x2="211.26392059326173" class="arrow" y1="0"/><polygon xmlns="http://www.w3.org/2000/svg" class="arrowheadAfterChoice" points="206.26392059326173,0 201.26392059326173,2.5 201.26392059326173,-2.5" transform="rotate(0,206.26392059326173,0)"/><path xmlns="http://www.w3.org/2000/svg" class="arrow" d="M0 0 Q5 0 5 5 L5 14.892361164093018 Q5 19.892361164093018 10 19.892361164093018 L20 19.892361164093018"/><polygon xmlns="http://www.w3.org/2000/svg" class="arrowheadStartChoice" points="20,19.892361164093018 15,22.392361164093018 15,17.392361164093018" transform="rotate(0,20,19.892361164093018)"/><path xmlns="http://www.w3.org/2000/svg" class="arrow" d="M191.26392059326173 19.892361164093018 L201.26392059326173 19.892361164093018 Q206.26392059326173 19.892361164093018 206.26392059326173 14.892361164093018 L206.26392059326173 5 Q206.26392059326173 0 211.26392059326173 0"/><polygon xmlns="http://www.w3.org/2000/svg" class="arrowheadAfterChoice" points="206.26392059326173,5 201.26392059326173,7.5 201.26392059326173,2.5" transform="rotate(-90,206.26392059326173,5)"/></svg:g><svg:g syntaxdiagram2svg:role="forward" transform="translate(461.95014533996584,28.652777671813965)" syntaxdiagram2svg:heightBelow="49.04166603088379" syntaxdiagram2svg:dispatch="decision" syntaxdiagram2svg:heightAbove="28.652777671813965" syntaxdiagram2svg:width="207.53656997680665" class="groupchoice" syntaxdiagram2svg:row="0"><svg:g syntaxdiagram2svg:role="straight" syntaxdiagram2svg:dispatch="void"/><svg:g syntaxdiagram2svg:role="upward" transform="translate(31.26924142837524,-19.760416507720947)" syntaxdiagram2svg:heightBelow="8.760416507720947" syntaxdiagram2svg:dispatch="boxed" syntaxdiagram2svg:heightAbove="8.892361164093018" syntaxdiagram2svg:width="144.99808712005617" class="boxed groupcomp" syntaxdiagram2svg:element="groupcomp"><svg:g syntaxdiagram2svg:role="forward" transform="translate(4,0)" syntaxdiagram2svg:heightBelow="4.760416507720947" syntaxdiagram2svg:dispatch="unboxed" syntaxdiagram2svg:heightAbove="4.892361164093018" syntaxdiagram2svg:width="136.99808712005617" class="unboxed kwd" syntaxdiagram2svg:element="kwd"><svg:g syntaxdiagram2svg:heightAbove="4.5729169845581055" syntaxdiagram2svg:heightBelow="3.128472328186035" syntaxdiagram2svg:width="57.78962574005127" class="text" syntaxdiagram2svg:dispatch="text" transform="translate(0,3)"><svg:text class="kwd">KEYWORD=</svg:text></svg:g><svg:g syntaxdiagram2svg:heightAbove="4.892361164093018" syntaxdiagram2svg:heightBelow="4.760416507720947" syntaxdiagram2svg:width="79.20846138000489" class="text" syntaxdiagram2svg:dispatch="text" transform="translate(57.78962574005127,3)"><svg:text class="var" syntaxdiagram2svg:extendwidth="2"> default_choice</svg:text></svg:g></svg:g><rect xmlns="http://www.w3.org/2000/svg" rx="3" x="0" width="144.99808712005617" height="17.652777671813965" y="-8.892361164093018" class="syntaxgroupcomp"/></svg:g><svg:g syntaxdiagram2svg:role="downward" transform="translate(20,19.892361164093018)" syntaxdiagram2svg:heightBelow="29.14930486679077" syntaxdiagram2svg:dispatch="sequence" syntaxdiagram2svg:heightAbove="8.892361164093018" syntaxdiagram2svg:width="167.53656997680665" class="groupseq"><svg:g syntaxdiagram2svg:role="forward" transform="translate(0,0)" syntaxdiagram2svg:heightBelow="7.128472328186035" syntaxdiagram2svg:dispatch="boxed" syntaxdiagram2svg:heightAbove="8.572916984558105" syntaxdiagram2svg:width="65.78962574005126" class="boxed groupcomp" syntaxdiagram2svg:element="groupcomp"><svg:g syntaxdiagram2svg:role="forward" transform="translate(4,0)" syntaxdiagram2svg:heightBelow="3.128472328186035" syntaxdiagram2svg:dispatch="unboxed" syntaxdiagram2svg:heightAbove="4.5729169845581055" syntaxdiagram2svg:width="57.78962574005127" class="unboxed kwd" syntaxdiagram2svg:element="kwd"><svg:g syntaxdiagram2svg:heightAbove="4.5729169845581055" syntaxdiagram2svg:heightBelow="3.128472328186035" syntaxdiagram2svg:width="57.78962574005127" class="text" syntaxdiagram2svg:dispatch="text" transform="translate(0,3)"><svg:text class="kwd">KEYWORD=</svg:text></svg:g></svg:g><rect xmlns="http://www.w3.org/2000/svg" rx="3" x="0" width="65.78962574005126" height="15.70138931274414" y="-8.572916984558105" class="syntaxgroupcomp"/></svg:g><svg:g syntaxdiagram2svg:role="forward" transform="translate(80.78962574005126,0)" syntaxdiagram2svg:heightBelow="29.14930486679077" syntaxdiagram2svg:dispatch="decision" syntaxdiagram2svg:heightAbove="8.892361164093018" syntaxdiagram2svg:width="86.74694423675538" class="groupchoice"><svg:g syntaxdiagram2svg:role="straight" transform="translate(20.000000000000004,0)" syntaxdiagram2svg:heightBelow="7.128471851348877" syntaxdiagram2svg:dispatch="boxed" syntaxdiagram2svg:heightAbove="8.892361164093018" syntaxdiagram2svg:width="46.746944236755375" class="boxed var" syntaxdiagram2svg:element="var"><svg:g syntaxdiagram2svg:heightAbove="4.892361164093018" syntaxdiagram2svg:heightBelow="3.128471851348877" syntaxdiagram2svg:width="38.746944236755375" class="text" syntaxdiagram2svg:dispatch="text" transform="translate(4,3)"><svg:text class="var">choice2</svg:text></svg:g><rect xmlns="http://www.w3.org/2000/svg" rx="3" x="0" width="46.746944236755375" height="16.020833015441895" y="-8.892361164093018" class="syntaxvar"/></svg:g><svg:g syntaxdiagram2svg:role="downward" transform="translate(20.057594108581547,22.020833015441895)" syntaxdiagram2svg:heightBelow="7.128471851348877" syntaxdiagram2svg:dispatch="boxed" syntaxdiagram2svg:heightAbove="8.892361164093018" syntaxdiagram2svg:width="46.63175601959229" class="boxed var" syntaxdiagram2svg:element="var"><svg:g syntaxdiagram2svg:heightAbove="4.892361164093018" syntaxdiagram2svg:heightBelow="3.128471851348877" syntaxdiagram2svg:width="38.63175601959229" class="text" syntaxdiagram2svg:dispatch="text" transform="translate(4,3)"><svg:text class="var">choice3</svg:text></svg:g><rect xmlns="http://www.w3.org/2000/svg" rx="3" x="0" width="46.63175601959229" height="16.020833015441895" y="-8.892361164093018" class="syntaxvar"/></svg:g><line xmlns="http://www.w3.org/2000/svg" y2="0" x1="0" x2="20.000000000000004" class="arrow" y1="0"/><polygon xmlns="http://www.w3.org/2000/svg" class="arrowheadStartChoice" points="20.000000000000004,0 15.000000000000004,2.5 15.000000000000004,-2.5" transform="rotate(0,20.000000000000004,0)"/><line xmlns="http://www.w3.org/2000/svg" y2="0" x1="66.74694423675538" x2="86.74694423675538" class="arrow" y1="0"/><polygon xmlns="http://www.w3.org/2000/svg" class="arrowheadAfterChoice" points="81.74694423675538,0 76.74694423675538,2.5 76.74694423675538,-2.5" transform="rotate(0,81.74694423675538,0)"/><path xmlns="http://www.w3.org/2000/svg" class="arrow" d="M0 0 Q5 0 5 5 L5 17.020833015441895 Q5 22.020833015441895 10 22.020833015441895 L20.057594108581547 22.020833015441895"/><polygon xmlns="http://www.w3.org/2000/svg" class="arrowheadStartChoice" points="20.057594108581547,22.020833015441895 15.057594108581547,24.520833015441895 15.057594108581547,19.520833015441895" transform="rotate(0,20.057594108581547,22.020833015441895)"/><path xmlns="http://www.w3.org/2000/svg" class="arrow" d="M66.68935012817383 22.020833015441895 L76.74694423675538 22.020833015441895 Q81.74694423675538 22.020833015441895 81.74694423675538 17.020833015441895 L81.74694423675538 5 Q81.74694423675538 0 86.74694423675538 0"/><polygon xmlns="http://www.w3.org/2000/svg" class="arrowheadAfterChoice" points="81.74694423675538,5 76.74694423675538,7.5 76.74694423675538,2.5" transform="rotate(-90,81.74694423675538,5)"/></svg:g><line xmlns="http://www.w3.org/2000/svg" y2="0" x1="65.78962574005126" x2="80.78962574005126" class="arrow" y1="0"/><polygon xmlns="http://www.w3.org/2000/svg" class="arrowheadSeq" points="80.78962574005126,0 75.78962574005126,2.5 75.78962574005126,-2.5" transform="rotate(0,80.78962574005126,0)"/></svg:g><line xmlns="http://www.w3.org/2000/svg" y2="0" x1="0" x2="103.76828498840332" class="arrow" y1="0"/><line xmlns="http://www.w3.org/2000/svg" y2="0" x1="103.76828498840332" x2="207.53656997680665" class="arrow" y1="0"/><polygon xmlns="http://www.w3.org/2000/svg" class="arrowheadAfterChoice" points="202.53656997680665,0 197.53656997680665,2.5 197.53656997680665,-2.5" transform="rotate(0,202.53656997680665,0)"/><path xmlns="http://www.w3.org/2000/svg" class="arrow" d="M0 0 Q5 0 5 -5 L5 -14.760416507720947 Q5 -19.760416507720947 10 -19.760416507720947 L31.26924142837524 -19.760416507720947"/><polygon xmlns="http://www.w3.org/2000/svg" class="arrowheadStartChoice" points="31.26924142837524,-19.760416507720947 26.26924142837524,-17.260416507720947 26.26924142837524,-22.260416507720947" transform="rotate(0,31.26924142837524,-19.760416507720947)"/><path xmlns="http://www.w3.org/2000/svg" class="arrow" d="M176.2673285484314 -19.760416507720947 L197.53656997680665 -19.760416507720947 Q202.53656997680665 -19.760416507720947 202.53656997680665 -14.760416507720947 L202.53656997680665 -5 Q202.53656997680665 0 207.53656997680665 0"/><polygon xmlns="http://www.w3.org/2000/svg" class="arrowheadAfterChoice" points="202.53656997680665,-5 197.53656997680665,-2.5 197.53656997680665,-7.5" transform="rotate(90,202.53656997680665,-5)"/><path xmlns="http://www.w3.org/2000/svg" class="arrow" d="M0 0 Q5 0 5 5 L5 14.892361164093018 Q5 19.892361164093018 10 19.892361164093018 L20 19.892361164093018"/><polygon xmlns="http://www.w3.org/2000/svg" class="arrowheadStartChoice" points="20,19.892361164093018 15,22.392361164093018 15,17.392361164093018" transform="rotate(0,20,19.892361164093018)"/><path xmlns="http://www.w3.org/2000/svg" class="arrow" d="M187.53656997680665 19.892361164093018 L197.53656997680665 19.892361164093018 Q202.53656997680665 19.892361164093018 202.53656997680665 14.892361164093018 L202.53656997680665 5 Q202.53656997680665 0 207.53656997680665 0"/><polygon xmlns="http://www.w3.org/2000/svg" class="arrowheadAfterChoice" points="202.53656997680665,5 197.53656997680665,7.5 197.53656997680665,2.5" transform="rotate(-90,202.53656997680665,5)"/></svg:g><svg:g syntaxdiagram2svg:role="forward" transform="translate(45,132.69444370269775)" syntaxdiagram2svg:heightBelow="9.131944179534912" syntaxdiagram2svg:dispatch="loop" syntaxdiagram2svg:heightAbove="40" syntaxdiagram2svg:width="136.64720649719237" class="groupseq" syntaxdiagram2svg:row="1"><svg:g syntaxdiagram2svg:role="forward" transform="translate(19.999999999999993,0)" syntaxdiagram2svg:heightBelow="9.131944179534912" syntaxdiagram2svg:dispatch="sequence" syntaxdiagram2svg:heightAbove="8.892361164093018" syntaxdiagram2svg:width="96.64720649719239" class="groupseq"><svg:g syntaxdiagram2svg:role="forward" transform="translate(0,0)" syntaxdiagram2svg:heightBelow="9.131944179534912" syntaxdiagram2svg:dispatch="boxed" syntaxdiagram2svg:heightAbove="8.892361164093018" syntaxdiagram2svg:width="96.64720649719239" class="boxed kwd" syntaxdiagram2svg:element="kwd"><svg:g syntaxdiagram2svg:heightAbove="4.892361164093018" syntaxdiagram2svg:heightBelow="5.131944179534912" syntaxdiagram2svg:width="88.64720649719239" class="text" syntaxdiagram2svg:dispatch="text" transform="translate(4,3)"><svg:text class="kwd">repeatable_item1</svg:text></svg:g><rect xmlns="http://www.w3.org/2000/svg" rx="3" x="0" width="96.64720649719239" height="18.02430534362793" y="-8.892361164093018" class="syntaxkwd"/></svg:g></svg:g><line xmlns="http://www.w3.org/2000/svg" y2="0" x1="0" x2="19.999999999999993" class="arrow" y1="0"/><polygon xmlns="http://www.w3.org/2000/svg" class="arrowheadStartRepGroup" points="19.999999999999993,0 14.999999999999993,2.5 14.999999999999993,-2.5" transform="rotate(0,19.999999999999993,0)"/><line xmlns="http://www.w3.org/2000/svg" y2="0" x1="116.64720649719237" x2="136.64720649719237" class="arrow" y1="0"/><polygon xmlns="http://www.w3.org/2000/svg" class="arrowheadEndRepGroup" points="126.64720649719237,0 121.64720649719237,2.5 121.64720649719237,-2.5" transform="rotate(0,126.64720649719237,0)"/><path xmlns="http://www.w3.org/2000/svg" class="arrow" d="M126.64720649719237 0 Q136.64720649719237 0 136.64720649719237 -10 L136.64720649719237 -25 Q136.64720649719237 -35 126.64720649719237 -35 L68.32360324859619,-35"/><polygon xmlns="http://www.w3.org/2000/svg" class="arrowheadRepSep" points="68.32360324859619,-35 63.323603248596186,-32.5 63.323603248596186,-37.5" transform="rotate(180,68.32360324859619,-35)"/><path xmlns="http://www.w3.org/2000/svg" class="arrow" d="M68.32360324859619 -35 L10 -35 Q0 -35 0 -25 L0 -10 Q0 0 10 0"/><polygon xmlns="http://www.w3.org/2000/svg" class="arrowheadRepSepReturn" points="0,-10 -5,-7.5 -5,-12.5" transform="rotate(90,0,-10)"/></svg:g><svg:g syntaxdiagram2svg:role="forward" transform="translate(196.64720649719237,132.69444370269775)" syntaxdiagram2svg:heightBelow="29.152777671813965" syntaxdiagram2svg:dispatch="decision" syntaxdiagram2svg:heightAbove="5" syntaxdiagram2svg:width="127.5983425140381" class="groupseq" syntaxdiagram2svg:row="1"><svg:g syntaxdiagram2svg:role="straight" syntaxdiagram2svg:dispatch="void"/><svg:g syntaxdiagram2svg:role="downward" transform="translate(20,19.892361164093018)" syntaxdiagram2svg:heightBelow="9.260416507720947" syntaxdiagram2svg:dispatch="sequence" syntaxdiagram2svg:heightAbove="8.892361164093018" syntaxdiagram2svg:width="87.5983425140381" class="groupseq"><svg:a xmlns:svgobject="http://www.moldflow.com/namespace/2008/dita/svgobject" syntaxdiagram2svg:element="fragref" transform="translate(0,0)" syntaxdiagram2svg:role="forward" xlink:show="replace" xlink:type="simple" syntaxdiagram2svg:width="87.5983425140381" syntaxdiagram2svg:heightBelow="9.260416507720947" class="boxed fragref" syntaxdiagram2svg:dispatch="boxed" syntaxdiagram2svg:heightAbove="8.892361164093018" xlink:actuate="onRequest"><svg:g syntaxdiagram2svg:heightAbove="4.892361164093018" syntaxdiagram2svg:heightBelow="5.260416507720947" syntaxdiagram2svg:width="79.5983425140381" class="text" syntaxdiagram2svg:dispatch="text" transform="translate(4,3)"><svg:text class="fragref">fragment_name</svg:text></svg:g><rect xmlns="http://www.w3.org/2000/svg" rx="0" x="0" width="87.5983425140381" height="18.152777671813965" y="-8.892361164093018" class="syntaxfragref"/></svg:a></svg:g><line xmlns="http://www.w3.org/2000/svg" y2="0" x1="0" x2="63.79917125701905" class="arrow" y1="0"/><line xmlns="http://www.w3.org/2000/svg" y2="0" x1="63.79917125701905" x2="127.59834251403811" class="arrow" y1="0"/><polygon xmlns="http://www.w3.org/2000/svg" class="arrowheadAfterChoice" points="122.59834251403811,0 117.59834251403811,2.5 117.59834251403811,-2.5" transform="rotate(0,122.59834251403811,0)"/><path xmlns="http://www.w3.org/2000/svg" class="arrow" d="M0 0 Q5 0 5 5 L5 14.892361164093018 Q5 19.892361164093018 10 19.892361164093018 L20 19.892361164093018"/><polygon xmlns="http://www.w3.org/2000/svg" class="arrowheadStartChoice" points="20,19.892361164093018 15,22.392361164093018 15,17.392361164093018" transform="rotate(0,20,19.892361164093018)"/><path xmlns="http://www.w3.org/2000/svg" class="arrow" d="M107.5983425140381 19.892361164093018 L117.5983425140381 19.892361164093018 Q122.5983425140381 19.892361164093018 122.5983425140381 14.892361164093018 L122.5983425140381 5 Q122.5983425140381 0 127.5983425140381 0"/><polygon xmlns="http://www.w3.org/2000/svg" class="arrowheadAfterChoice" points="122.5983425140381,5 117.5983425140381,7.5 117.5983425140381,2.5" transform="rotate(-90,122.5983425140381,5)"/></svg:g><svg:g syntaxdiagram2svg:role="forward" transform="translate(339.2455490112305,132.69444370269775)" syntaxdiagram2svg:heightBelow="53.04861068725586" syntaxdiagram2svg:dispatch="decision" syntaxdiagram2svg:heightAbove="5" syntaxdiagram2svg:width="134.21680641174316" class="groupchoice" syntaxdiagram2svg:row="1"><svg:g syntaxdiagram2svg:role="straight" syntaxdiagram2svg:dispatch="void"/><svg:g syntaxdiagram2svg:role="downward" transform="translate(20.321816444396973,19.892361164093018)" syntaxdiagram2svg:heightBelow="9.131944179534912" syntaxdiagram2svg:dispatch="boxed" syntaxdiagram2svg:heightAbove="8.892361164093018" syntaxdiagram2svg:width="93.57317352294922" class="boxed var" syntaxdiagram2svg:element="var"><svg:g syntaxdiagram2svg:heightAbove="4.892361164093018" syntaxdiagram2svg:heightBelow="5.131944179534912" syntaxdiagram2svg:width="85.57317352294922" class="text" syntaxdiagram2svg:dispatch="text" transform="translate(4,3)"><svg:text class="var">optional_choice1</svg:text></svg:g><rect xmlns="http://www.w3.org/2000/svg" rx="3" x="0" width="93.57317352294922" height="18.02430534362793" y="-8.892361164093018" class="syntaxvar"/></svg:g><svg:g syntaxdiagram2svg:role="downward" transform="translate(20,43.91666650772095)" syntaxdiagram2svg:heightBelow="9.131944179534912" syntaxdiagram2svg:dispatch="boxed" syntaxdiagram2svg:heightAbove="8.892361164093018" syntaxdiagram2svg:width="94.21680641174316" class="boxed var" syntaxdiagram2svg:element="var"><svg:g syntaxdiagram2svg:heightAbove="4.892361164093018" syntaxdiagram2svg:heightBelow="5.131944179534912" syntaxdiagram2svg:width="86.21680641174316" class="text" syntaxdiagram2svg:dispatch="text" transform="translate(4,3)"><svg:text class="var">optional_choice2</svg:text></svg:g><rect xmlns="http://www.w3.org/2000/svg" rx="3" x="0" width="94.21680641174316" height="18.02430534362793" y="-8.892361164093018" class="syntaxvar"/></svg:g><line xmlns="http://www.w3.org/2000/svg" y2="0" x1="0" x2="67.10840320587158" class="arrow" y1="0"/><line xmlns="http://www.w3.org/2000/svg" y2="0" x1="67.10840320587158" x2="134.21680641174316" class="arrow" y1="0"/><polygon xmlns="http://www.w3.org/2000/svg" class="arrowheadAfterChoice" points="129.21680641174316,0 124.21680641174316,2.5 124.21680641174316,-2.5" transform="rotate(0,129.21680641174316,0)"/><path xmlns="http://www.w3.org/2000/svg" class="arrow" d="M0 0 Q5 0 5 5 L5 14.892361164093018 Q5 19.892361164093018 10 19.892361164093018 L20.321816444396973 19.892361164093018"/><polygon xmlns="http://www.w3.org/2000/svg" class="arrowheadStartChoice" points="20.321816444396973,19.892361164093018 15.321816444396973,22.392361164093018 15.321816444396973,17.392361164093018" transform="rotate(0,20.321816444396973,19.892361164093018)"/><path xmlns="http://www.w3.org/2000/svg" class="arrow" d="M113.89498996734619 19.892361164093018 L124.21680641174316 19.892361164093018 Q129.21680641174316 19.892361164093018 129.21680641174316 14.892361164093018 L129.21680641174316 5 Q129.21680641174316 0 134.21680641174316 0"/><polygon xmlns="http://www.w3.org/2000/svg" class="arrowheadAfterChoice" points="129.21680641174316,5 124.21680641174316,7.5 124.21680641174316,2.5" transform="rotate(-90,129.21680641174316,5)"/><path xmlns="http://www.w3.org/2000/svg" class="arrow" d="M0 0 Q5 0 5 5 L5 38.91666650772095 Q5 43.91666650772095 10 43.91666650772095 L20 43.91666650772095"/><polygon xmlns="http://www.w3.org/2000/svg" class="arrowheadStartChoice" points="20,43.91666650772095 15,46.41666650772095 15,41.41666650772095" transform="rotate(0,20,43.91666650772095)"/><path xmlns="http://www.w3.org/2000/svg" class="arrow" d="M114.21680641174316 43.91666650772095 L124.21680641174316 43.91666650772095 Q129.21680641174316 43.91666650772095 129.21680641174316 38.91666650772095 L129.21680641174316 5 Q129.21680641174316 0 134.21680641174316 0"/><polygon xmlns="http://www.w3.org/2000/svg" class="arrowheadAfterChoice" points="129.21680641174316,5 124.21680641174316,7.5 124.21680641174316,2.5" transform="rotate(-90,129.21680641174316,5)"/></svg:g><svg:g syntaxdiagram2svg:role="forward" transform="translate(488.46235542297364,132.69444370269775)" syntaxdiagram2svg:heightBelow="57.18055486679077" syntaxdiagram2svg:dispatch="decision" syntaxdiagram2svg:heightAbove="8.892361164093018" syntaxdiagram2svg:width="135.8418342590332" class="groupchoice" syntaxdiagram2svg:row="1"><svg:g syntaxdiagram2svg:role="straight" transform="translate(20.321816444396966,0)" syntaxdiagram2svg:heightBelow="9.131944179534912" syntaxdiagram2svg:dispatch="boxed" syntaxdiagram2svg:heightAbove="8.892361164093018" syntaxdiagram2svg:width="95.19820137023926" class="boxed var" syntaxdiagram2svg:element="var"><svg:g syntaxdiagram2svg:heightAbove="4.892361164093018" syntaxdiagram2svg:heightBelow="5.131944179534912" syntaxdiagram2svg:width="87.19820137023926" class="text" syntaxdiagram2svg:dispatch="text" transform="translate(4,3)"><svg:text class="var">required_choice1</svg:text></svg:g><rect xmlns="http://www.w3.org/2000/svg" rx="3" x="0" width="95.19820137023926" height="18.02430534362793" y="-8.892361164093018" class="syntaxvar"/></svg:g><svg:g syntaxdiagram2svg:role="downward" transform="translate(19.999999999999993,24.02430534362793)" syntaxdiagram2svg:heightBelow="9.131944179534912" syntaxdiagram2svg:dispatch="boxed" syntaxdiagram2svg:heightAbove="8.892361164093018" syntaxdiagram2svg:width="95.8418342590332" class="boxed var" syntaxdiagram2svg:element="var"><svg:g syntaxdiagram2svg:heightAbove="4.892361164093018" syntaxdiagram2svg:heightBelow="5.131944179534912" syntaxdiagram2svg:width="87.8418342590332" class="text" syntaxdiagram2svg:dispatch="text" transform="translate(4,3)"><svg:text class="var">required_choice2</svg:text></svg:g><rect xmlns="http://www.w3.org/2000/svg" rx="3" x="0" width="95.8418342590332" height="18.02430534362793" y="-8.892361164093018" class="syntaxvar"/></svg:g><svg:g syntaxdiagram2svg:role="downward" transform="translate(20.05759010314941,48.04861068725586)" syntaxdiagram2svg:heightBelow="9.131944179534912" syntaxdiagram2svg:dispatch="boxed" syntaxdiagram2svg:heightAbove="8.892361164093018" syntaxdiagram2svg:width="95.72665405273438" class="boxed var" syntaxdiagram2svg:element="var"><svg:g syntaxdiagram2svg:heightAbove="4.892361164093018" syntaxdiagram2svg:heightBelow="5.131944179534912" syntaxdiagram2svg:width="87.72665405273438" class="text" syntaxdiagram2svg:dispatch="text" transform="translate(4,3)"><svg:text class="var">required_choice3</svg:text></svg:g><rect xmlns="http://www.w3.org/2000/svg" rx="3" x="0" width="95.72665405273438" height="18.02430534362793" y="-8.892361164093018" class="syntaxvar"/></svg:g><line xmlns="http://www.w3.org/2000/svg" y2="0" x1="0" x2="20.321816444396966" class="arrow" y1="0"/><polygon xmlns="http://www.w3.org/2000/svg" class="arrowheadStartChoice" points="20.321816444396966,0 15.321816444396966,2.5 15.321816444396966,-2.5" transform="rotate(0,20.321816444396966,0)"/><line xmlns="http://www.w3.org/2000/svg" y2="0" x1="115.52001781463622" x2="135.8418342590332" class="arrow" y1="0"/><polygon xmlns="http://www.w3.org/2000/svg" class="arrowheadAfterChoice" points="130.8418342590332,0 125.84183425903319,2.5 125.84183425903319,-2.5" transform="rotate(0,130.8418342590332,0)"/><path xmlns="http://www.w3.org/2000/svg" class="arrow" d="M0 0 Q5 0 5 5 L5 19.02430534362793 Q5 24.02430534362793 10 24.02430534362793 L19.999999999999993 24.02430534362793"/><polygon xmlns="http://www.w3.org/2000/svg" class="arrowheadStartChoice" points="19.999999999999993,24.02430534362793 14.999999999999993,26.52430534362793 14.999999999999993,21.52430534362793" transform="rotate(0,19.999999999999993,24.02430534362793)"/><path xmlns="http://www.w3.org/2000/svg" class="arrow" d="M115.84183425903319 24.02430534362793 L125.8418342590332 24.02430534362793 Q130.8418342590332 24.02430534362793 130.8418342590332 19.02430534362793 L130.8418342590332 5 Q130.8418342590332 0 135.8418342590332 0"/><polygon xmlns="http://www.w3.org/2000/svg" class="arrowheadAfterChoice" points="130.8418342590332,5 125.84183425903319,7.5 125.84183425903319,2.5" transform="rotate(-90,130.8418342590332,5)"/><path xmlns="http://www.w3.org/2000/svg" class="arrow" d="M0 0 Q5 0 5 5 L5 43.04861068725586 Q5 48.04861068725586 10 48.04861068725586 L20.05759010314941 48.04861068725586"/><polygon xmlns="http://www.w3.org/2000/svg" class="arrowheadStartChoice" points="20.05759010314941,48.04861068725586 15.057590103149408,50.54861068725586 15.057590103149408,45.54861068725586" transform="rotate(0,20.05759010314941,48.04861068725586)"/><path xmlns="http://www.w3.org/2000/svg" class="arrow" d="M115.78424415588378 48.04861068725586 L125.8418342590332 48.04861068725586 Q130.8418342590332 48.04861068725586 130.8418342590332 43.04861068725586 L130.8418342590332 5 Q130.8418342590332 0 135.8418342590332 0"/><polygon xmlns="http://www.w3.org/2000/svg" class="arrowheadAfterChoice" points="130.8418342590332,5 125.84183425903319,7.5 125.84183425903319,2.5" transform="rotate(-90,130.8418342590332,5)"/></svg:g><svg:g syntaxdiagram2svg:role="forward" transform="translate(45,244.87499856948853)" syntaxdiagram2svg:heightBelow="9.131944179534912" syntaxdiagram2svg:dispatch="loop" syntaxdiagram2svg:heightAbove="40" syntaxdiagram2svg:width="136.49043388366698" class="groupseq" syntaxdiagram2svg:row="2"><svg:g syntaxdiagram2svg:role="repsep" transform="translate(63.36110241413117,-35)" syntaxdiagram2svg:heightBelow="8.420138955116272" syntaxdiagram2svg:dispatch="boxed" syntaxdiagram2svg:heightAbove="4" syntaxdiagram2svg:width="9.768229055404664" class="boxed repsep" syntaxdiagram2svg:element="repsep"><svg:g syntaxdiagram2svg:heightAbove="-1.7534722089767456" syntaxdiagram2svg:heightBelow="4.420138955116272" syntaxdiagram2svg:width="1.7682290554046631" class="text" syntaxdiagram2svg:dispatch="text" transform="translate(4,3)"><svg:text class="repsep">,</svg:text></svg:g><rect xmlns="http://www.w3.org/2000/svg" rx="3" x="0" width="9.768229055404664" height="12.420138955116272" y="-4" class="syntaxrepsep"/></svg:g><svg:g syntaxdiagram2svg:role="forward" transform="translate(19.999999999999993,0)" syntaxdiagram2svg:heightBelow="9.131944179534912" syntaxdiagram2svg:dispatch="sequence" syntaxdiagram2svg:heightAbove="8.892361164093018" syntaxdiagram2svg:width="96.490433883667" class="groupseq"><svg:g syntaxdiagram2svg:role="forward" transform="translate(0,0)" syntaxdiagram2svg:heightBelow="9.131944179534912" syntaxdiagram2svg:dispatch="boxed" syntaxdiagram2svg:heightAbove="8.892361164093018" syntaxdiagram2svg:width="96.490433883667" class="boxed kwd" syntaxdiagram2svg:element="kwd"><svg:g syntaxdiagram2svg:heightAbove="4.892361164093018" syntaxdiagram2svg:heightBelow="5.131944179534912" syntaxdiagram2svg:width="88.490433883667" class="text" syntaxdiagram2svg:dispatch="text" transform="translate(4,3)"><svg:text class="kwd">repeatable_item2</svg:text></svg:g><rect xmlns="http://www.w3.org/2000/svg" rx="3" x="0" width="96.490433883667" height="18.02430534362793" y="-8.892361164093018" class="syntaxkwd"/></svg:g></svg:g><line xmlns="http://www.w3.org/2000/svg" y2="0" x1="0" x2="19.999999999999993" class="arrow" y1="0"/><polygon xmlns="http://www.w3.org/2000/svg" class="arrowheadStartRepGroup" points="19.999999999999993,0 14.999999999999993,2.5 14.999999999999993,-2.5" transform="rotate(0,19.999999999999993,0)"/><line xmlns="http://www.w3.org/2000/svg" y2="0" x1="116.49043388366698" x2="136.49043388366698" class="arrow" y1="0"/><polygon xmlns="http://www.w3.org/2000/svg" class="arrowheadEndRepGroup" points="126.49043388366698,0 121.49043388366698,2.5 121.49043388366698,-2.5" transform="rotate(0,126.49043388366698,0)"/><path xmlns="http://www.w3.org/2000/svg" class="arrow" d="M126.49043388366698 0 Q136.49043388366698 0 136.49043388366698 -10 L136.49043388366698 -25 Q136.49043388366698 -35 126.49043388366698 -35 L73.12933146953583,-35"/><polygon xmlns="http://www.w3.org/2000/svg" class="arrowheadRepSep" points="73.12933146953583,-35 68.12933146953583,-32.5 68.12933146953583,-37.5" transform="rotate(180,73.12933146953583,-35)"/><path xmlns="http://www.w3.org/2000/svg" class="arrow" d="M63.36110241413117 -35 L10 -35 Q0 -35 0 -25 L0 -10 Q0 0 10 0"/><polygon xmlns="http://www.w3.org/2000/svg" class="arrowheadRepSepReturn" points="0,-10 -5,-7.5 -5,-12.5" transform="rotate(90,0,-10)"/></svg:g><svg:g syntaxdiagram2svg:role="forward" transform="translate(196.49043388366698,244.87499856948853)" syntaxdiagram2svg:heightBelow="27.020833015441895" syntaxdiagram2svg:dispatch="decision" syntaxdiagram2svg:heightAbove="28.33333396911621" syntaxdiagram2svg:width="152.59539527893065" class="groupchoice" syntaxdiagram2svg:row="2"><svg:g syntaxdiagram2svg:role="straight" syntaxdiagram2svg:dispatch="void"/><svg:g syntaxdiagram2svg:role="upward" transform="translate(19.999999999999993,-19.760416984558105)" syntaxdiagram2svg:heightBelow="8.760416984558105" syntaxdiagram2svg:dispatch="boxed" syntaxdiagram2svg:heightAbove="8.572916984558105" syntaxdiagram2svg:width="112.59539527893067" class="boxed kwd" syntaxdiagram2svg:element="kwd"><svg:g syntaxdiagram2svg:heightAbove="4.5729169845581055" syntaxdiagram2svg:heightBelow="4.7604169845581055" syntaxdiagram2svg:width="104.59539527893067" class="text" syntaxdiagram2svg:dispatch="text" transform="translate(4,3)"><svg:text class="kwd">DEFAULT_KEYWORD</svg:text></svg:g><rect xmlns="http://www.w3.org/2000/svg" rx="3" x="0" width="112.59539527893067" height="17.33333396911621" y="-8.572916984558105" class="syntaxkwd"/></svg:g><svg:g syntaxdiagram2svg:role="downward" transform="translate(50.41835508346557,19.892361164093018)" syntaxdiagram2svg:heightBelow="7.128471851348877" syntaxdiagram2svg:dispatch="boxed" syntaxdiagram2svg:heightAbove="8.892361164093018" syntaxdiagram2svg:width="51.75868511199951" class="boxed kwd" syntaxdiagram2svg:element="kwd"><svg:g syntaxdiagram2svg:heightAbove="4.892361164093018" syntaxdiagram2svg:heightBelow="3.128471851348877" syntaxdiagram2svg:width="43.75868511199951" class="text" syntaxdiagram2svg:dispatch="text" transform="translate(4,3)"><svg:text class="kwd">KEYword</svg:text></svg:g><rect xmlns="http://www.w3.org/2000/svg" rx="3" x="0" width="51.75868511199951" height="16.020833015441895" y="-8.892361164093018" class="syntaxkwd"/></svg:g><line xmlns="http://www.w3.org/2000/svg" y2="0" x1="0" x2="76.29769763946533" class="arrow" y1="0"/><line xmlns="http://www.w3.org/2000/svg" y2="0" x1="76.29769763946533" x2="152.59539527893065" class="arrow" y1="0"/><polygon xmlns="http://www.w3.org/2000/svg" class="arrowheadAfterChoice" points="147.59539527893065,0 142.59539527893065,2.5 142.59539527893065,-2.5" transform="rotate(0,147.59539527893065,0)"/><path xmlns="http://www.w3.org/2000/svg" class="arrow" d="M0 0 Q5 0 5 -5 L5 -14.760416984558105 Q5 -19.760416984558105 10 -19.760416984558105 L19.999999999999993 -19.760416984558105"/><polygon xmlns="http://www.w3.org/2000/svg" class="arrowheadStartChoice" points="19.999999999999993,-19.760416984558105 14.999999999999993,-17.260416984558105 14.999999999999993,-22.260416984558105" transform="rotate(0,19.999999999999993,-19.760416984558105)"/><path xmlns="http://www.w3.org/2000/svg" class="arrow" d="M132.59539527893065 -19.760416984558105 L142.59539527893065 -19.760416984558105 Q147.59539527893065 -19.760416984558105 147.59539527893065 -14.760416984558105 L147.59539527893065 -5 Q147.59539527893065 0 152.59539527893065 0"/><polygon xmlns="http://www.w3.org/2000/svg" class="arrowheadAfterChoice" points="147.59539527893065,-5 142.59539527893065,-2.5 142.59539527893065,-7.5" transform="rotate(90,147.59539527893065,-5)"/><path xmlns="http://www.w3.org/2000/svg" class="arrow" d="M0 0 Q5 0 5 5 L5 14.892361164093018 Q5 19.892361164093018 10 19.892361164093018 L50.41835508346557 19.892361164093018"/><polygon xmlns="http://www.w3.org/2000/svg" class="arrowheadStartChoice" points="50.41835508346557,19.892361164093018 45.41835508346557,22.392361164093018 45.41835508346557,17.392361164093018" transform="rotate(0,50.41835508346557,19.892361164093018)"/><path xmlns="http://www.w3.org/2000/svg" class="arrow" d="M102.17704019546508 19.892361164093018 L142.59539527893065 19.892361164093018 Q147.59539527893065 19.892361164093018 147.59539527893065 14.892361164093018 L147.59539527893065 5 Q147.59539527893065 0 152.59539527893065 0"/><polygon xmlns="http://www.w3.org/2000/svg" class="arrowheadAfterChoice" points="147.59539527893065,5 142.59539527893065,7.5 142.59539527893065,2.5" transform="rotate(-90,147.59539527893065,5)"/></svg:g><polygon xmlns="http://www.w3.org/2000/svg" class="arrowheadStartEnd" points="0,28.652777671813965 -5,31.152777671813965 -5,26.152777671813965" transform="rotate(0,0,28.652777671813965)"/><polygon xmlns="http://www.w3.org/2000/svg" class="arrowheadStartEnd" points="5,28.652777671813965 0,31.152777671813965 0,26.152777671813965" transform="rotate(0,5,28.652777671813965)"/><line xmlns="http://www.w3.org/2000/svg" y2="28.652777671813965" x1="0" x2="10" class="arrow" y1="28.652777671813965"/><line xmlns="http://www.w3.org/2000/svg" y2="28.652777671813965" x1="109.36907386779785" x2="124.36907386779785" class="arrow" y1="28.652777671813965"/><polygon xmlns="http://www.w3.org/2000/svg" class="arrowheadSeq" points="124.36907386779785,28.652777671813965 119.36907386779785,31.152777671813965 119.36907386779785,26.152777671813965" transform="rotate(0,124.36907386779785,28.652777671813965)"/><line xmlns="http://www.w3.org/2000/svg" y2="28.652777671813965" x1="220.6862247467041" x2="235.6862247467041" class="arrow" y1="28.652777671813965"/><polygon xmlns="http://www.w3.org/2000/svg" class="arrowheadSeq" points="235.6862247467041,28.652777671813965 230.6862247467041,31.152777671813965 230.6862247467041,26.152777671813965" transform="rotate(0,235.6862247467041,28.652777671813965)"/><line xmlns="http://www.w3.org/2000/svg" y2="28.652777671813965" x1="446.95014533996584" x2="461.95014533996584" class="arrow" y1="28.652777671813965"/><polygon xmlns="http://www.w3.org/2000/svg" class="arrowheadSeq" points="461.95014533996584,28.652777671813965 456.95014533996584,31.152777671813965 456.95014533996584,26.152777671813965" transform="rotate(0,461.95014533996584,28.652777671813965)"/><line xmlns="http://www.w3.org/2000/svg" y2="28.652777671813965" x1="669.4867153167725" x2="684.4867153167725" class="arrow" y1="28.652777671813965"/><polygon xmlns="http://www.w3.org/2000/svg" class="arrowheadStartEnd" points="684.4867153167725,28.652777671813965 679.4867153167725,31.152777671813965 679.4867153167725,26.152777671813965" transform="rotate(0,684.4867153167725,28.652777671813965)"/><polygon xmlns="http://www.w3.org/2000/svg" class="arrowheadStartEnd" points="30,132.69444370269775 25,135.19444370269775 25,130.19444370269775" transform="rotate(0,30,132.69444370269775)"/><line xmlns="http://www.w3.org/2000/svg" y2="132.69444370269775" x1="30" x2="45" class="arrow" y1="132.69444370269775"/><line xmlns="http://www.w3.org/2000/svg" y2="132.69444370269775" x1="181.64720649719237" x2="196.64720649719237" class="arrow" y1="132.69444370269775"/><polygon xmlns="http://www.w3.org/2000/svg" class="arrowheadSeq" points="196.64720649719237,132.69444370269775 191.64720649719237,135.19444370269775 191.64720649719237,130.19444370269775" transform="rotate(0,196.64720649719237,132.69444370269775)"/><line xmlns="http://www.w3.org/2000/svg" y2="132.69444370269775" x1="324.2455490112305" x2="339.2455490112305" class="arrow" y1="132.69444370269775"/><polygon xmlns="http://www.w3.org/2000/svg" class="arrowheadSeq" points="339.2455490112305,132.69444370269775 334.2455490112305,135.19444370269775 334.2455490112305,130.19444370269775" transform="rotate(0,339.2455490112305,132.69444370269775)"/><line xmlns="http://www.w3.org/2000/svg" y2="132.69444370269775" x1="473.46235542297364" x2="488.46235542297364" class="arrow" y1="132.69444370269775"/><polygon xmlns="http://www.w3.org/2000/svg" class="arrowheadSeq" points="488.46235542297364,132.69444370269775 483.46235542297364,135.19444370269775 483.46235542297364,130.19444370269775" transform="rotate(0,488.46235542297364,132.69444370269775)"/><line xmlns="http://www.w3.org/2000/svg" y2="132.69444370269775" x1="624.3041896820068" x2="639.3041896820068" class="arrow" y1="132.69444370269775"/><polygon xmlns="http://www.w3.org/2000/svg" class="arrowheadStartEnd" points="639.3041896820068,132.69444370269775 634.3041896820068,135.19444370269775 634.3041896820068,130.19444370269775" transform="rotate(0,639.3041896820068,132.69444370269775)"/><polygon xmlns="http://www.w3.org/2000/svg" class="arrowheadStartEnd" points="30,244.87499856948853 25,247.37499856948853 25,242.37499856948853" transform="rotate(0,30,244.87499856948853)"/><line xmlns="http://www.w3.org/2000/svg" y2="244.87499856948853" x1="30" x2="45" class="arrow" y1="244.87499856948853"/><line xmlns="http://www.w3.org/2000/svg" y2="244.87499856948853" x1="181.49043388366698" x2="196.49043388366698" class="arrow" y1="244.87499856948853"/><polygon xmlns="http://www.w3.org/2000/svg" class="arrowheadSeq" points="196.49043388366698,244.87499856948853 191.49043388366698,247.37499856948853 191.49043388366698,242.37499856948853" transform="rotate(0,196.49043388366698,244.87499856948853)"/><line xmlns="http://www.w3.org/2000/svg" y2="244.87499856948853" x1="349.08582916259763" x2="359.08582916259763" class="arrow" y1="244.87499856948853"/><polygon xmlns="http://www.w3.org/2000/svg" class="arrowheadStartEnd" points="359.08582916259763,244.87499856948853 354.08582916259763,247.37499856948853 354.08582916259763,242.37499856948853" transform="rotate(0,359.08582916259763,244.87499856948853)"/><polygon xmlns="http://www.w3.org/2000/svg" class="arrowheadStartEnd" points="359.08582916259763,244.87499856948853 354.08582916259763,247.37499856948853 354.08582916259763,242.37499856948853" transform="rotate(180,359.08582916259763,244.87499856948853)"/></svg:g></svg>