<?xml version="1.0" encoding="UTF-8"?><svg xmlns="http://www.w3.org/2000/svg" xmlns:svg="http://www.w3.org/2000/svg" xmlns:syntaxdiagram2svg="http://www.moldflow.com/namespace/2008/syntaxdiagram2svg" xmlns:xlink="http://www.w3.org/1999/xlink" contentScriptType="text/ecmascript" zoomAndPan="magnify" contentStyleType="text/css" version="1.0" width="618.4713923215866px" preserveAspectRatio="xMidYMid meet" viewBox="0 0 618.4713923215866 198.02083492279053" height="198.02083492279053px" class="syntaxdiagram"><svg:defs xmlns="http://www.w3.org/1999/xhtml"><svg:style type="text/css" xml:space="preserve">
.arrow, .syntaxarrow { fill: none; stroke: black; }
.arrowheadStartEnd, .arrowheadRepSep, .arrowheadRepSepReturn { stroke: black; fill: black; }
.arrowheadSeq, .arrowheadStartChoice, .arrowheadAfterChoice, .arrowheadStartRepGroup, .arrowheadEndRepGroup, .arrowheadRev { stroke: none; fill: none; }
rect { fill: none; stroke: none; }
rect.fragref,rect.syntaxfragref { fill: none; stroke: black; }
text {
fill: #000000;
fill-opacity: 1;
font-family: IBM Plex Sans,Arial Unicode MS,Arial,Helvetica;
font-style: normal;
font-weight: normal;
font-size: 8pt;
stroke: #000000;
stroke-width: 0.1;
}
text.var, text.syntaxvar {font-style:italic;}
</svg:style></svg:defs><svg:script xmlns="http://www.w3.org/1999/xhtml" type="text/ecmascript" xlink:href="../js/syntaxdiagram-svg/constants.js" xlink:type="simple" xlink:actuate="onLoad" xlink:show="other"/><svg:script xmlns="http://www.w3.org/1999/xhtml" type="text/ecmascript" xlink:href="../js/syntaxdiagram-svg/diagram.js" xlink:type="simple" xlink:actuate="onLoad" xlink:show="other"/><svg:script xmlns="http://www.w3.org/1999/xhtml" type="text/ecmascript" xlink:href="../js/syntaxdiagram-svg/sequence.js" xlink:type="simple" xlink:actuate="onLoad" xlink:show="other"/><svg:script xmlns="http://www.w3.org/1999/xhtml" type="text/ecmascript" xlink:href="../js/syntaxdiagram-svg/loop.js" xlink:type="simple" xlink:actuate="onLoad" xlink:show="other"/><svg:script xmlns="http://www.w3.org/1999/xhtml" type="text/ecmascript" xlink:href="../js/syntaxdiagram-svg/decision.js" xlink:type="simple" xlink:actuate="onLoad" xlink:show="other"/><svg:script xmlns="http://www.w3.org/1999/xhtml" type="text/ecmascript" xlink:href="../js/syntaxdiagram-svg/revdecision.js" xlink:type="simple" xlink:actuate="onLoad" xlink:show="other"/><svg:script xmlns="http://www.w3.org/1999/xhtml" type="text/ecmascript" xlink:href="../js/syntaxdiagram-svg/boxed.js" xlink:type="simple" xlink:actuate="onLoad" xlink:show="other"/><svg:script xmlns="http://www.w3.org/1999/xhtml" type="text/ecmascript" xlink:href="../js/syntaxdiagram-svg/unboxed.js" xlink:type="simple" xlink:actuate="onLoad" xlink:show="other"/><svg:script xmlns="http://www.w3.org/1999/xhtml" type="text/ecmascript" xlink:href="../js/syntaxdiagram-svg/text.js" xlink:type="simple" xlink:actuate="onLoad" xlink:show="other"/><svg:script xmlns="http://www.w3.org/1999/xhtml" type="text/ecmascript" xlink:href="../js/syntaxdiagram-svg/void.js" xlink:type="simple" xlink:actuate="onLoad" xlink:show="other"/><svg:script xmlns="http://www.w3.org/1999/xhtml" type="text/ecmascript" xlink:href="../js/syntaxdiagram-svg/notecontainer.js" xlink:type="simple" xlink:actuate="onLoad" xlink:show="other"/><svg:script xmlns="http://www.w3.org/1999/xhtml" type="text/ecmascript" xlink:href="../js/syntaxdiagram-svg/note.js" xlink:type="simple" xlink:actuate="onLoad" xlink:show="other"/><svg:script xmlns="http://www.w3.org/1999/xhtml" type="text/ecmascript" xlink:href="../js/syntaxdiagram-svg/main.js" xlink:type="simple" xlink:actuate="onLoad" xlink:show="other"/><svg:g xmlns="http://www.w3.org/1999/xhtml" transform="translate(5,5)" syntaxdiagram2svg:heightBelow="193.02083492279053" syntaxdiagram2svg:dispatch="diagram" syntaxdiagram2svg:heightAbove="5" syntaxdiagram2svg:width="618.4713923215866" class="diagram" xml:base="..//"><svg:g syntaxdiagram2svg:role="forward" transform="translate(10,40)" syntaxdiagram2svg:heightBelow="48.40277862548828" syntaxdiagram2svg:dispatch="decision" syntaxdiagram2svg:heightAbove="28.33333396911621" syntaxdiagram2svg:width="152.59539527893065" class="groupchoice" syntaxdiagram2svg:row="0"><svg:g syntaxdiagram2svg:role="straight" syntaxdiagram2svg:dispatch="void"/><svg:g syntaxdiagram2svg:role="upward" transform="translate(19.999999999999993,-19.760416984558105)" syntaxdiagram2svg:heightBelow="8.760416984558105" syntaxdiagram2svg:dispatch="boxed" syntaxdiagram2svg:heightAbove="8.572916984558105" syntaxdiagram2svg:width="112.59539527893067" class="boxed kwd" syntaxdiagram2svg:element="kwd"><svg:g syntaxdiagram2svg:heightAbove="4.5729169845581055" syntaxdiagram2svg:heightBelow="4.7604169845581055" syntaxdiagram2svg:width="104.59539527893067" class="text" syntaxdiagram2svg:dispatch="text" transform="translate(4,3)"><svg:text class="kwd">DEFAULT_KEYWORD</svg:text></svg:g><rect xmlns="http://www.w3.org/2000/svg" rx="3" x="0" width="112.59539527893067" height="17.33333396911621" y="-8.572916984558105" class="syntaxkwd"/></svg:g><svg:g syntaxdiagram2svg:role="downward" transform="translate(43.32450046539306,19.572916984558105)" syntaxdiagram2svg:heightBelow="7.128472328186035" syntaxdiagram2svg:dispatch="boxed" syntaxdiagram2svg:heightAbove="8.572916984558105" syntaxdiagram2svg:width="65.94639434814454" class="boxed kwd" syntaxdiagram2svg:element="kwd"><svg:g syntaxdiagram2svg:heightAbove="4.5729169845581055" syntaxdiagram2svg:heightBelow="3.128472328186035" syntaxdiagram2svg:width="57.94639434814454" class="text" syntaxdiagram2svg:dispatch="text" transform="translate(4,3)"><svg:text class="kwd">KEYWORD1</svg:text></svg:g><rect xmlns="http://www.w3.org/2000/svg" rx="3" x="0" width="65.94639434814454" height="15.70138931274414" y="-8.572916984558105" class="syntaxkwd"/></svg:g><svg:g syntaxdiagram2svg:role="downward" transform="translate(43.402884769439694,41.274306297302246)" syntaxdiagram2svg:heightBelow="7.128472328186035" syntaxdiagram2svg:dispatch="boxed" syntaxdiagram2svg:heightAbove="8.572916984558105" syntaxdiagram2svg:width="65.78962574005126" class="boxed kwd" syntaxdiagram2svg:element="kwd"><svg:g syntaxdiagram2svg:heightAbove="4.5729169845581055" syntaxdiagram2svg:heightBelow="3.128472328186035" syntaxdiagram2svg:width="57.78962574005127" class="text" syntaxdiagram2svg:dispatch="text" transform="translate(4,3)"><svg:text class="kwd">KEYWORD2</svg:text></svg:g><rect xmlns="http://www.w3.org/2000/svg" rx="3" x="0" width="65.78962574005126" height="15.70138931274414" y="-8.572916984558105" class="syntaxkwd"/></svg:g><line xmlns="http://www.w3.org/2000/svg" y2="0" x1="0" x2="76.29769763946533" class="arrow" y1="0"/><line xmlns="http://www.w3.org/2000/svg" y2="0" x1="76.29769763946533" x2="152.59539527893065" class="arrow" y1="0"/><polygon xmlns="http://www.w3.org/2000/svg" class="arrowheadAfterChoice" points="147.59539527893065,0 142.59539527893065,2.5 142.59539527893065,-2.5" transform="rotate(0,147.59539527893065,0)"/><path xmlns="http://www.w3.org/2000/svg" class="arrow" d="M0 0 Q5 0 5 -5 L5 -14.760416984558105 Q5 -19.760416984558105 10 -19.760416984558105 L19.999999999999993 -19.760416984558105"/><polygon xmlns="http://www.w3.org/2000/svg" class="arrowheadStartChoice" points="19.999999999999993,-19.760416984558105 14.999999999999993,-17.260416984558105 14.999999999999993,-22.260416984558105" transform="rotate(0,19.999999999999993,-19.760416984558105)"/><path xmlns="http://www.w3.org/2000/svg" class="arrow" d="M132.59539527893065 -19.760416984558105 L142.59539527893065 -19.760416984558105 Q147.59539527893065 -19.760416984558105 147.59539527893065 -14.760416984558105 L147.59539527893065 -5 Q147.59539527893065 0 152.59539527893065 0"/><polygon xmlns="http://www.w3.org/2000/svg" class="arrowheadAfterChoice" points="147.59539527893065,-5 142.59539527893065,-2.5 142.59539527893065,-7.5" transform="rotate(90,147.59539527893065,-5)"/><path xmlns="http://www.w3.org/2000/svg" class="arrow" d="M0 0 Q5 0 5 5 L5 14.572916984558105 Q5 19.572916984558105 10 19.572916984558105 L43.32450046539306 19.572916984558105"/><polygon xmlns="http://www.w3.org/2000/svg" class="arrowheadStartChoice" points="43.32450046539306,19.572916984558105 38.32450046539306,22.072916984558105 38.32450046539306,17.072916984558105" transform="rotate(0,43.32450046539306,19.572916984558105)"/><path xmlns="http://www.w3.org/2000/svg" class="arrow" d="M109.2708948135376 19.572916984558105 L142.59539527893065 19.572916984558105 Q147.59539527893065 19.572916984558105 147.59539527893065 14.572916984558105 L147.59539527893065 5 Q147.59539527893065 0 152.59539527893065 0"/><polygon xmlns="http://www.w3.org/2000/svg" class="arrowheadAfterChoice" points="147.59539527893065,5 142.59539527893065,7.5 142.59539527893065,2.5" transform="rotate(-90,147.59539527893065,5)"/><path xmlns="http://www.w3.org/2000/svg" class="arrow" d="M0 0 Q5 0 5 5 L5 36.274306297302246 Q5 41.274306297302246 10 41.274306297302246 L43.402884769439694 41.274306297302246"/><polygon xmlns="http://www.w3.org/2000/svg" class="arrowheadStartChoice" points="43.402884769439694,41.274306297302246 38.402884769439694,43.774306297302246 38.402884769439694,38.774306297302246" transform="rotate(0,43.402884769439694,41.274306297302246)"/><path xmlns="http://www.w3.org/2000/svg" class="arrow" d="M109.19251050949096 41.274306297302246 L142.59539527893065 41.274306297302246 Q147.59539527893065 41.274306297302246 147.59539527893065 36.274306297302246 L147.59539527893065 5 Q147.59539527893065 0 152.59539527893065 0"/><polygon xmlns="http://www.w3.org/2000/svg" class="arrowheadAfterChoice" points="147.59539527893065,5 142.59539527893065,7.5 142.59539527893065,2.5" transform="rotate(-90,147.59539527893065,5)"/></svg:g><svg:g syntaxdiagram2svg:role="forward" transform="translate(177.59539527893065,40)" syntaxdiagram2svg:heightBelow="148.02083492279053" syntaxdiagram2svg:dispatch="decision" syntaxdiagram2svg:heightAbove="40" syntaxdiagram2svg:width="415.87599704265597" class="groupchoice" syntaxdiagram2svg:row="0"><svg:g syntaxdiagram2svg:role="straight" transform="translate(34.82689478397367,0)" syntaxdiagram2svg:heightBelow="27.020833015441895" syntaxdiagram2svg:dispatch="sequence" syntaxdiagram2svg:heightAbove="40" syntaxdiagram2svg:width="346.2222074747086" class="groupseq"><svg:g syntaxdiagram2svg:role="forward" transform="translate(0,0)" syntaxdiagram2svg:heightBelow="8.46180534362793" syntaxdiagram2svg:dispatch="boxed" syntaxdiagram2svg:heightAbove="9.10763931274414" syntaxdiagram2svg:width="10.876562416553497" class="boxed delim" syntaxdiagram2svg:element="delim"><svg:g syntaxdiagram2svg:heightAbove="5.107639312744141" syntaxdiagram2svg:heightBelow="4.46180534362793" syntaxdiagram2svg:width="2.8765624165534973" class="text" syntaxdiagram2svg:dispatch="text" transform="translate(4,3)"><svg:text class="delim">(</svg:text></svg:g><rect xmlns="http://www.w3.org/2000/svg" rx="3" x="0" width="10.876562416553497" height="17.56944465637207" y="-9.10763931274414" class="syntaxdelim"/></svg:g><svg:g syntaxdiagram2svg:role="forward" transform="translate(25.876562416553497,0)" syntaxdiagram2svg:heightBelow="7.128471851348877" syntaxdiagram2svg:dispatch="loop" syntaxdiagram2svg:heightAbove="40" syntaxdiagram2svg:width="92.944517326355" class="groupseq"><svg:g syntaxdiagram2svg:role="forward" transform="translate(20,0)" syntaxdiagram2svg:heightBelow="7.128471851348877" syntaxdiagram2svg:dispatch="boxed" syntaxdiagram2svg:heightAbove="8.892361164093018" syntaxdiagram2svg:width="52.94451732635498" class="boxed groupcomp" syntaxdiagram2svg:element="groupcomp"><svg:g syntaxdiagram2svg:role="forward" transform="translate(4,0)" syntaxdiagram2svg:heightBelow="3.128471851348877" syntaxdiagram2svg:dispatch="unboxed" syntaxdiagram2svg:heightAbove="4.892361164093018" syntaxdiagram2svg:width="44.94451732635498" class="unboxed var" syntaxdiagram2svg:element="var"><svg:g syntaxdiagram2svg:heightAbove="4.892361164093018" syntaxdiagram2svg:heightBelow="3.128471851348877" syntaxdiagram2svg:width="44.94451732635498" class="text" syntaxdiagram2svg:dispatch="text" transform="translate(0,3)"><svg:text class="var">variable1</svg:text></svg:g></svg:g><rect xmlns="http://www.w3.org/2000/svg" rx="3" x="0" width="52.94451732635498" height="16.020833015441895" y="-8.892361164093018" class="syntaxgroupcomp"/></svg:g><line xmlns="http://www.w3.org/2000/svg" y2="0" x1="0" x2="20" class="arrow" y1="0"/><polygon xmlns="http://www.w3.org/2000/svg" class="arrowheadStartRepGroup" points="20,0 15,2.5 15,-2.5" transform="rotate(0,20,0)"/><line xmlns="http://www.w3.org/2000/svg" y2="0" x1="72.94451732635498" x2="92.944517326355" class="arrow" y1="0"/><polygon xmlns="http://www.w3.org/2000/svg" class="arrowheadEndRepGroup" points="82.944517326355,0 77.944517326355,2.5 77.944517326355,-2.5" transform="rotate(0,82.944517326355,0)"/><path xmlns="http://www.w3.org/2000/svg" class="arrow" d="M82.944517326355 0 Q92.944517326355 0 92.944517326355 -10 L92.944517326355 -25 Q92.944517326355 -35 82.944517326355 -35 L46.472258663177506,-35"/><polygon xmlns="http://www.w3.org/2000/svg" class="arrowheadRepSep" points="46.472258663177506,-35 41.472258663177506,-32.5 41.472258663177506,-37.5" transform="rotate(180,46.472258663177506,-35)"/><path xmlns="http://www.w3.org/2000/svg" class="arrow" d="M46.472258663177506 -35 L10 -35 Q0 -35 0 -25 L0 -10 Q0 0 10 0"/><polygon xmlns="http://www.w3.org/2000/svg" class="arrowheadRepSepReturn" points="0,-10 -5,-7.5 -5,-12.5" transform="rotate(90,0,-10)"/></svg:g><svg:g syntaxdiagram2svg:role="forward" transform="translate(133.8210797429085,0)" syntaxdiagram2svg:heightBelow="8.46180534362793" syntaxdiagram2svg:dispatch="boxed" syntaxdiagram2svg:heightAbove="9.10763931274414" syntaxdiagram2svg:width="10.876562416553497" class="boxed delim" syntaxdiagram2svg:element="delim"><svg:g syntaxdiagram2svg:heightAbove="5.107639312744141" syntaxdiagram2svg:heightBelow="4.46180534362793" syntaxdiagram2svg:width="2.8765624165534973" class="text" syntaxdiagram2svg:dispatch="text" transform="translate(4,3)"><svg:text class="delim">)</svg:text></svg:g><rect xmlns="http://www.w3.org/2000/svg" rx="3" x="0" width="10.876562416553497" height="17.56944465637207" y="-9.10763931274414" class="syntaxdelim"/></svg:g><svg:g syntaxdiagram2svg:role="forward" transform="translate(159.697642159462,0)" syntaxdiagram2svg:heightBelow="27.020833015441895" syntaxdiagram2svg:dispatch="decision" syntaxdiagram2svg:heightAbove="26.70138931274414" syntaxdiagram2svg:width="186.5245653152466" class="groupchoice"><svg:g syntaxdiagram2svg:role="straight" syntaxdiagram2svg:dispatch="void"/><svg:g syntaxdiagram2svg:role="upward" transform="translate(20,-18.128472328186035)" syntaxdiagram2svg:heightBelow="7.128472328186035" syntaxdiagram2svg:dispatch="sequence" syntaxdiagram2svg:heightAbove="8.572916984558105" syntaxdiagram2svg:width="146.5245653152466" class="groupseq"><svg:g syntaxdiagram2svg:role="forward" transform="translate(0,0)" syntaxdiagram2svg:heightBelow="7.128472328186035" syntaxdiagram2svg:dispatch="boxed" syntaxdiagram2svg:heightAbove="8.572916984558105" syntaxdiagram2svg:width="65.47608451843263" class="boxed kwd" syntaxdiagram2svg:element="kwd"><svg:g syntaxdiagram2svg:heightAbove="4.5729169845581055" syntaxdiagram2svg:heightBelow="3.128472328186035" syntaxdiagram2svg:width="57.47608451843262" class="text" syntaxdiagram2svg:dispatch="text" transform="translate(4,3)"><svg:text class="kwd">KEYWORD3</svg:text></svg:g><rect xmlns="http://www.w3.org/2000/svg" rx="3" x="0" width="65.47608451843263" height="15.70138931274414" y="-8.572916984558105" class="syntaxkwd"/></svg:g><svg:g syntaxdiagram2svg:role="forward" transform="translate(80.47608451843263,0)" syntaxdiagram2svg:heightBelow="7.128472328186035" syntaxdiagram2svg:dispatch="boxed" syntaxdiagram2svg:heightAbove="8.572916984558105" syntaxdiagram2svg:width="66.04848079681398" class="boxed kwd" syntaxdiagram2svg:element="kwd"><svg:g syntaxdiagram2svg:heightAbove="4.5729169845581055" syntaxdiagram2svg:heightBelow="3.128472328186035" syntaxdiagram2svg:width="58.04848079681397" class="text" syntaxdiagram2svg:dispatch="text" transform="translate(4,3)"><svg:text class="kwd">KEYWORD4</svg:text></svg:g><rect xmlns="http://www.w3.org/2000/svg" rx="3" x="0" width="66.04848079681398" height="15.70138931274414" y="-8.572916984558105" class="syntaxkwd"/></svg:g><line xmlns="http://www.w3.org/2000/svg" y2="0" x1="65.47608451843263" x2="80.47608451843263" class="arrow" y1="0"/><polygon xmlns="http://www.w3.org/2000/svg" class="arrowheadSeq" points="80.47608451843263,0 75.47608451843263,2.5 75.47608451843263,-2.5" transform="rotate(0,80.47608451843263,0)"/></svg:g><svg:g syntaxdiagram2svg:role="downward" transform="translate(32.231724548339855,19.892361164093018)" syntaxdiagram2svg:heightBelow="7.128471851348877" syntaxdiagram2svg:dispatch="sequence" syntaxdiagram2svg:heightAbove="8.892361164093018" syntaxdiagram2svg:width="122.0611162185669" class="groupseq"><svg:g syntaxdiagram2svg:role="forward" transform="translate(0,0)" syntaxdiagram2svg:heightBelow="7.128471851348877" syntaxdiagram2svg:dispatch="boxed" syntaxdiagram2svg:heightAbove="8.892361164093018" syntaxdiagram2svg:width="53.58815021514893" class="boxed var" syntaxdiagram2svg:element="var"><svg:g syntaxdiagram2svg:heightAbove="4.892361164093018" syntaxdiagram2svg:heightBelow="3.128471851348877" syntaxdiagram2svg:width="45.58815021514893" class="text" syntaxdiagram2svg:dispatch="text" transform="translate(4,3)"><svg:text class="var">variable2</svg:text></svg:g><rect xmlns="http://www.w3.org/2000/svg" rx="3" x="0" width="53.58815021514893" height="16.020833015441895" y="-8.892361164093018" class="syntaxvar"/></svg:g><svg:g syntaxdiagram2svg:role="forward" transform="translate(68.58815021514893,0)" syntaxdiagram2svg:heightBelow="7.128471851348877" syntaxdiagram2svg:dispatch="boxed" syntaxdiagram2svg:heightAbove="8.892361164093018" syntaxdiagram2svg:width="53.47296600341797" class="boxed var" syntaxdiagram2svg:element="var"><svg:g syntaxdiagram2svg:heightAbove="4.892361164093018" syntaxdiagram2svg:heightBelow="3.128471851348877" syntaxdiagram2svg:width="45.47296600341797" class="text" syntaxdiagram2svg:dispatch="text" transform="translate(4,3)"><svg:text class="var">variable3</svg:text></svg:g><rect xmlns="http://www.w3.org/2000/svg" rx="3" x="0" width="53.47296600341797" height="16.020833015441895" y="-8.892361164093018" class="syntaxvar"/></svg:g><line xmlns="http://www.w3.org/2000/svg" y2="0" x1="53.58815021514893" x2="68.58815021514893" class="arrow" y1="0"/><polygon xmlns="http://www.w3.org/2000/svg" class="arrowheadSeq" points="68.58815021514893,0 63.58815021514893,2.5 63.58815021514893,-2.5" transform="rotate(0,68.58815021514893,0)"/></svg:g><line xmlns="http://www.w3.org/2000/svg" y2="0" x1="0" x2="93.2622826576233" class="arrow" y1="0"/><line xmlns="http://www.w3.org/2000/svg" y2="0" x1="93.2622826576233" x2="186.5245653152466" class="arrow" y1="0"/><polygon xmlns="http://www.w3.org/2000/svg" class="arrowheadAfterChoice" points="181.5245653152466,0 176.5245653152466,2.5 176.5245653152466,-2.5" transform="rotate(0,181.5245653152466,0)"/><path xmlns="http://www.w3.org/2000/svg" class="arrow" d="M0 0 Q5 0 5 -5 L5 -13.128472328186035 Q5 -18.128472328186035 10 -18.128472328186035 L20 -18.128472328186035"/><polygon xmlns="http://www.w3.org/2000/svg" class="arrowheadStartChoice" points="20,-18.128472328186035 15,-15.628472328186035 15,-20.628472328186035" transform="rotate(0,20,-18.128472328186035)"/><path xmlns="http://www.w3.org/2000/svg" class="arrow" d="M166.5245653152466 -18.128472328186035 L176.5245653152466 -18.128472328186035 Q181.5245653152466 -18.128472328186035 181.5245653152466 -13.128472328186035 L181.5245653152466 -5 Q181.5245653152466 0 186.5245653152466 0"/><polygon xmlns="http://www.w3.org/2000/svg" class="arrowheadAfterChoice" points="181.5245653152466,-5 176.5245653152466,-2.5 176.5245653152466,-7.5" transform="rotate(90,181.5245653152466,-5)"/><path xmlns="http://www.w3.org/2000/svg" class="arrow" d="M0 0 Q5 0 5 5 L5 14.892361164093018 Q5 19.892361164093018 10 19.892361164093018 L32.231724548339855 19.892361164093018"/><polygon xmlns="http://www.w3.org/2000/svg" class="arrowheadStartChoice" points="32.231724548339855,19.892361164093018 27.231724548339855,22.392361164093018 27.231724548339855,17.392361164093018" transform="rotate(0,32.231724548339855,19.892361164093018)"/><path xmlns="http://www.w3.org/2000/svg" class="arrow" d="M154.29284076690675 19.892361164093018 L176.5245653152466 19.892361164093018 Q181.5245653152466 19.892361164093018 181.5245653152466 14.892361164093018 L181.5245653152466 5 Q181.5245653152466 0 186.5245653152466 0"/><polygon xmlns="http://www.w3.org/2000/svg" class="arrowheadAfterChoice" points="181.5245653152466,5 176.5245653152466,7.5 176.5245653152466,2.5" transform="rotate(-90,181.5245653152466,5)"/></svg:g><line xmlns="http://www.w3.org/2000/svg" y2="0" x1="10.876562416553497" x2="25.876562416553497" class="arrow" y1="0"/><polygon xmlns="http://www.w3.org/2000/svg" class="arrowheadSeq" points="25.876562416553497,0 20.876562416553497,2.5 20.876562416553497,-2.5" transform="rotate(0,25.876562416553497,0)"/><line xmlns="http://www.w3.org/2000/svg" y2="0" x1="118.8210797429085" x2="133.8210797429085" class="arrow" y1="0"/><polygon xmlns="http://www.w3.org/2000/svg" class="arrowheadSeq" points="133.8210797429085,0 128.8210797429085,2.5 128.8210797429085,-2.5" transform="rotate(0,133.8210797429085,0)"/><line xmlns="http://www.w3.org/2000/svg" y2="0" x1="144.697642159462" x2="159.697642159462" class="arrow" y1="0"/><polygon xmlns="http://www.w3.org/2000/svg" class="arrowheadSeq" points="159.697642159462,0 154.697642159462,2.5 154.697642159462,-2.5" transform="rotate(0,159.697642159462,0)"/></svg:g><svg:g syntaxdiagram2svg:role="downward" transform="translate(20,73.0208330154419)" syntaxdiagram2svg:heightBelow="75.00000190734863" syntaxdiagram2svg:dispatch="sequence" syntaxdiagram2svg:heightAbove="40" syntaxdiagram2svg:width="375.87599704265597" class="groupseq"><svg:g syntaxdiagram2svg:role="forward" transform="translate(0,0)" syntaxdiagram2svg:heightBelow="8.46180534362793" syntaxdiagram2svg:dispatch="boxed" syntaxdiagram2svg:heightAbove="9.10763931274414" syntaxdiagram2svg:width="10.876562416553497" class="boxed delim" syntaxdiagram2svg:element="delim"><svg:g syntaxdiagram2svg:heightAbove="5.107639312744141" syntaxdiagram2svg:heightBelow="4.46180534362793" syntaxdiagram2svg:width="2.8765624165534973" class="text" syntaxdiagram2svg:dispatch="text" transform="translate(4,3)"><svg:text class="delim">(</svg:text></svg:g><rect xmlns="http://www.w3.org/2000/svg" rx="3" x="0" width="10.876562416553497" height="17.56944465637207" y="-9.10763931274414" class="syntaxdelim"/></svg:g><svg:g syntaxdiagram2svg:role="forward" transform="translate(25.876562416553497,0)" syntaxdiagram2svg:heightBelow="7.128471851348877" syntaxdiagram2svg:dispatch="loop" syntaxdiagram2svg:heightAbove="40" syntaxdiagram2svg:width="142.21299176216127" class="groupseq"><svg:g syntaxdiagram2svg:role="repsep" transform="translate(66.22238135337831,-35)" syntaxdiagram2svg:heightBelow="8.420138955116272" syntaxdiagram2svg:dispatch="boxed" syntaxdiagram2svg:heightAbove="4" syntaxdiagram2svg:width="9.768229055404664" class="boxed repsep" syntaxdiagram2svg:element="repsep"><svg:g syntaxdiagram2svg:heightAbove="-1.7534722089767456" syntaxdiagram2svg:heightBelow="4.420138955116272" syntaxdiagram2svg:width="1.7682290554046631" class="text" syntaxdiagram2svg:dispatch="text" transform="translate(4,3)"><svg:text class="repsep">,</svg:text></svg:g><rect xmlns="http://www.w3.org/2000/svg" rx="3" x="0" width="9.768229055404664" height="12.420138955116272" y="-4" class="syntaxrepsep"/></svg:g><svg:g syntaxdiagram2svg:role="forward" transform="translate(20,0)" syntaxdiagram2svg:heightBelow="7.128471851348877" syntaxdiagram2svg:dispatch="boxed" syntaxdiagram2svg:heightAbove="8.892361164093018" syntaxdiagram2svg:width="102.21299176216127" class="boxed groupcomp" syntaxdiagram2svg:element="groupcomp"><svg:g syntaxdiagram2svg:role="forward" transform="translate(4,0)" syntaxdiagram2svg:heightBelow="3.128471851348877" syntaxdiagram2svg:dispatch="unboxed" syntaxdiagram2svg:heightAbove="4.892361164093018" syntaxdiagram2svg:width="94.21299176216127" class="unboxed var" syntaxdiagram2svg:element="var"><svg:g syntaxdiagram2svg:heightAbove="4.892361164093018" syntaxdiagram2svg:heightBelow="3.128471851348877" syntaxdiagram2svg:width="45.403892326354985" class="text" syntaxdiagram2svg:dispatch="text" transform="translate(0,3)"><svg:text class="var">variable4</svg:text></svg:g><svg:g syntaxdiagram2svg:heightAbove="0.7013890743255615" syntaxdiagram2svg:heightBelow="0.21527767181396484" syntaxdiagram2svg:width="2.923958444595337" class="text" syntaxdiagram2svg:dispatch="text" transform="translate(45.403892326354985,3)"><svg:text class="sep">-</svg:text></svg:g><svg:g syntaxdiagram2svg:heightAbove="4.892361164093018" syntaxdiagram2svg:heightBelow="3.128471851348877" syntaxdiagram2svg:width="45.88514099121094" class="text" syntaxdiagram2svg:dispatch="text" transform="translate(48.32785077095032,3)"><svg:text class="var">variable5</svg:text></svg:g></svg:g><rect xmlns="http://www.w3.org/2000/svg" rx="3" x="0" width="102.21299176216127" height="16.020833015441895" y="-8.892361164093018" class="syntaxgroupcomp"/></svg:g><line xmlns="http://www.w3.org/2000/svg" y2="0" x1="0" x2="20" class="arrow" y1="0"/><polygon xmlns="http://www.w3.org/2000/svg" class="arrowheadStartRepGroup" points="20,0 15,2.5 15,-2.5" transform="rotate(0,20,0)"/><line xmlns="http://www.w3.org/2000/svg" y2="0" x1="122.21299176216127" x2="142.21299176216127" class="arrow" y1="0"/><polygon xmlns="http://www.w3.org/2000/svg" class="arrowheadEndRepGroup" points="132.21299176216127,0 127.21299176216127,2.5 127.21299176216127,-2.5" transform="rotate(0,132.21299176216127,0)"/><path xmlns="http://www.w3.org/2000/svg" class="arrow" d="M132.21299176216127 0 Q142.21299176216127 0 142.21299176216127 -10 L142.21299176216127 -25 Q142.21299176216127 -35 132.21299176216127 -35 L75.99061040878297,-35"/><polygon xmlns="http://www.w3.org/2000/svg" class="arrowheadRepSep" points="75.99061040878297,-35 70.99061040878297,-32.5 70.99061040878297,-37.5" transform="rotate(180,75.99061040878297,-35)"/><path xmlns="http://www.w3.org/2000/svg" class="arrow" d="M66.22238135337831 -35 L10 -35 Q0 -35 0 -25 L0 -10 Q0 0 10 0"/><polygon xmlns="http://www.w3.org/2000/svg" class="arrowheadRepSepReturn" points="0,-10 -5,-7.5 -5,-12.5" transform="rotate(90,0,-10)"/></svg:g><svg:g syntaxdiagram2svg:role="forward" transform="translate(183.08955417871476,0)" syntaxdiagram2svg:heightBelow="8.46180534362793" syntaxdiagram2svg:dispatch="boxed" syntaxdiagram2svg:heightAbove="9.10763931274414" syntaxdiagram2svg:width="10.876562416553497" class="boxed delim" syntaxdiagram2svg:element="delim"><svg:g syntaxdiagram2svg:heightAbove="5.107639312744141" syntaxdiagram2svg:heightBelow="4.46180534362793" syntaxdiagram2svg:width="2.8765624165534973" class="text" syntaxdiagram2svg:dispatch="text" transform="translate(4,3)"><svg:text class="delim">)</svg:text></svg:g><rect xmlns="http://www.w3.org/2000/svg" rx="3" x="0" width="10.876562416553497" height="17.56944465637207" y="-9.10763931274414" class="syntaxdelim"/></svg:g><svg:g syntaxdiagram2svg:role="forward" transform="translate(208.96611659526826,0)" syntaxdiagram2svg:heightBelow="75.00000190734863" syntaxdiagram2svg:dispatch="decision" syntaxdiagram2svg:heightAbove="5" syntaxdiagram2svg:width="166.9098804473877" class="groupchoice"><svg:g syntaxdiagram2svg:role="straight" syntaxdiagram2svg:dispatch="void"/><svg:g syntaxdiagram2svg:role="downward" transform="translate(20,19.572916984558105)" syntaxdiagram2svg:heightBelow="8.760416984558105" syntaxdiagram2svg:dispatch="boxed" syntaxdiagram2svg:heightAbove="8.572916984558105" syntaxdiagram2svg:width="126.9098804473877" class="boxed kwd" syntaxdiagram2svg:element="kwd"><svg:g syntaxdiagram2svg:heightAbove="4.5729169845581055" syntaxdiagram2svg:heightBelow="4.7604169845581055" syntaxdiagram2svg:width="118.9098804473877" class="text" syntaxdiagram2svg:dispatch="text" transform="translate(4,3)"><svg:text class="kwd">OPTIONAL_KEYWORD1</svg:text></svg:g><rect xmlns="http://www.w3.org/2000/svg" rx="3" x="0" width="126.9098804473877" height="17.33333396911621" y="-8.572916984558105" class="syntaxkwd"/></svg:g><svg:g syntaxdiagram2svg:role="downward" transform="translate(20.078386306762695,42.906250953674316)" syntaxdiagram2svg:heightBelow="8.760416984558105" syntaxdiagram2svg:dispatch="boxed" syntaxdiagram2svg:heightAbove="8.572916984558105" syntaxdiagram2svg:width="126.75310783386232" class="boxed kwd" syntaxdiagram2svg:element="kwd"><svg:g syntaxdiagram2svg:heightAbove="4.5729169845581055" syntaxdiagram2svg:heightBelow="4.7604169845581055" syntaxdiagram2svg:width="118.75310783386232" class="text" syntaxdiagram2svg:dispatch="text" transform="translate(4,3)"><svg:text class="kwd">OPTIONAL_KEYWORD2</svg:text></svg:g><rect xmlns="http://www.w3.org/2000/svg" rx="3" x="0" width="126.75310783386232" height="17.33333396911621" y="-8.572916984558105" class="syntaxkwd"/></svg:g><svg:g syntaxdiagram2svg:role="downward" transform="translate(20.235158920288086,66.23958492279053)" syntaxdiagram2svg:heightBelow="8.760416984558105" syntaxdiagram2svg:dispatch="boxed" syntaxdiagram2svg:heightAbove="8.572916984558105" syntaxdiagram2svg:width="126.43956260681153" class="boxed kwd" syntaxdiagram2svg:element="kwd"><svg:g syntaxdiagram2svg:heightAbove="4.5729169845581055" syntaxdiagram2svg:heightBelow="4.7604169845581055" syntaxdiagram2svg:width="118.43956260681153" class="text" syntaxdiagram2svg:dispatch="text" transform="translate(4,3)"><svg:text class="kwd">OPTIONAL_KEYWORD3</svg:text></svg:g><rect xmlns="http://www.w3.org/2000/svg" rx="3" x="0" width="126.43956260681153" height="17.33333396911621" y="-8.572916984558105" class="syntaxkwd"/></svg:g><line xmlns="http://www.w3.org/2000/svg" y2="0" x1="0" x2="83.45494022369385" class="arrow" y1="0"/><line xmlns="http://www.w3.org/2000/svg" y2="0" x1="83.45494022369385" x2="166.9098804473877" class="arrow" y1="0"/><polygon xmlns="http://www.w3.org/2000/svg" class="arrowheadAfterChoice" points="161.9098804473877,0 156.9098804473877,2.5 156.9098804473877,-2.5" transform="rotate(0,161.9098804473877,0)"/><path xmlns="http://www.w3.org/2000/svg" class="arrow" d="M0 0 Q5 0 5 5 L5 14.572916984558105 Q5 19.572916984558105 10 19.572916984558105 L20 19.572916984558105"/><polygon xmlns="http://www.w3.org/2000/svg" class="arrowheadStartChoice" points="20,19.572916984558105 15,22.072916984558105 15,17.072916984558105" transform="rotate(0,20,19.572916984558105)"/><path xmlns="http://www.w3.org/2000/svg" class="arrow" d="M146.9098804473877 19.572916984558105 L156.9098804473877 19.572916984558105 Q161.9098804473877 19.572916984558105 161.9098804473877 14.572916984558105 L161.9098804473877 5 Q161.9098804473877 0 166.9098804473877 0"/><polygon xmlns="http://www.w3.org/2000/svg" class="arrowheadAfterChoice" points="161.9098804473877,5 156.9098804473877,7.5 156.9098804473877,2.5" transform="rotate(-90,161.9098804473877,5)"/><path xmlns="http://www.w3.org/2000/svg" class="arrow" d="M0 0 Q5 0 5 5 L5 37.906250953674316 Q5 42.906250953674316 10 42.906250953674316 L20.078386306762695 42.906250953674316"/><polygon xmlns="http://www.w3.org/2000/svg" class="arrowheadStartChoice" points="20.078386306762695,42.906250953674316 15.078386306762695,45.406250953674316 15.078386306762695,40.406250953674316" transform="rotate(0,20.078386306762695,42.906250953674316)"/><path xmlns="http://www.w3.org/2000/svg" class="arrow" d="M146.831494140625 42.906250953674316 L156.9098804473877 42.906250953674316 Q161.9098804473877 42.906250953674316 161.9098804473877 37.906250953674316 L161.9098804473877 5 Q161.9098804473877 0 166.9098804473877 0"/><polygon xmlns="http://www.w3.org/2000/svg" class="arrowheadAfterChoice" points="161.9098804473877,5 156.9098804473877,7.5 156.9098804473877,2.5" transform="rotate(-90,161.9098804473877,5)"/><path xmlns="http://www.w3.org/2000/svg" class="arrow" d="M0 0 Q5 0 5 5 L5 61.23958492279053 Q5 66.23958492279053 10 66.23958492279053 L20.235158920288086 66.23958492279053"/><polygon xmlns="http://www.w3.org/2000/svg" class="arrowheadStartChoice" points="20.235158920288086,66.23958492279053 15.235158920288086,68.73958492279053 15.235158920288086,63.73958492279053" transform="rotate(0,20.235158920288086,66.23958492279053)"/><path xmlns="http://www.w3.org/2000/svg" class="arrow" d="M146.67472152709962 66.23958492279053 L156.9098804473877 66.23958492279053 Q161.9098804473877 66.23958492279053 161.9098804473877 61.23958492279053 L161.9098804473877 5 Q161.9098804473877 0 166.9098804473877 0"/><polygon xmlns="http://www.w3.org/2000/svg" class="arrowheadAfterChoice" points="161.9098804473877,5 156.9098804473877,7.5 156.9098804473877,2.5" transform="rotate(-90,161.9098804473877,5)"/></svg:g><line xmlns="http://www.w3.org/2000/svg" y2="0" x1="10.876562416553497" x2="25.876562416553497" class="arrow" y1="0"/><polygon xmlns="http://www.w3.org/2000/svg" class="arrowheadSeq" points="25.876562416553497,0 20.876562416553497,2.5 20.876562416553497,-2.5" transform="rotate(0,25.876562416553497,0)"/><line xmlns="http://www.w3.org/2000/svg" y2="0" x1="168.08955417871476" x2="183.08955417871476" class="arrow" y1="0"/><polygon xmlns="http://www.w3.org/2000/svg" class="arrowheadSeq" points="183.08955417871476,0 178.08955417871476,2.5 178.08955417871476,-2.5" transform="rotate(0,183.08955417871476,0)"/><line xmlns="http://www.w3.org/2000/svg" y2="0" x1="193.96611659526826" x2="208.96611659526826" class="arrow" y1="0"/><polygon xmlns="http://www.w3.org/2000/svg" class="arrowheadSeq" points="208.96611659526826,0 203.96611659526826,2.5 203.96611659526826,-2.5" transform="rotate(0,208.96611659526826,0)"/></svg:g><line xmlns="http://www.w3.org/2000/svg" y2="0" x1="0" x2="34.82689478397367" class="arrow" y1="0"/><polygon xmlns="http://www.w3.org/2000/svg" class="arrowheadStartChoice" points="34.82689478397367,0 29.82689478397367,2.5 29.82689478397367,-2.5" transform="rotate(0,34.82689478397367,0)"/><line xmlns="http://www.w3.org/2000/svg" y2="0" x1="381.0491022586823" x2="415.8759970426559" class="arrow" y1="0"/><polygon xmlns="http://www.w3.org/2000/svg" class="arrowheadAfterChoice" points="410.8759970426559,0 405.8759970426559,2.5 405.8759970426559,-2.5" transform="rotate(0,410.8759970426559,0)"/><path xmlns="http://www.w3.org/2000/svg" class="arrow" d="M0 0 Q5 0 5 5 L5 68.0208330154419 Q5 73.0208330154419 10 73.0208330154419 L20 73.0208330154419"/><polygon xmlns="http://www.w3.org/2000/svg" class="arrowheadStartChoice" points="20,73.0208330154419 15,75.5208330154419 15,70.5208330154419" transform="rotate(0,20,73.0208330154419)"/><path xmlns="http://www.w3.org/2000/svg" class="arrow" d="M395.87599704265597 73.0208330154419 L405.87599704265597 73.0208330154419 Q410.87599704265597 73.0208330154419 410.87599704265597 68.0208330154419 L410.87599704265597 5 Q410.87599704265597 0 415.87599704265597 0"/><polygon xmlns="http://www.w3.org/2000/svg" class="arrowheadAfterChoice" points="410.87599704265597,5 405.87599704265597,7.5 405.87599704265597,2.5" transform="rotate(-90,410.87599704265597,5)"/></svg:g><polygon xmlns="http://www.w3.org/2000/svg" class="arrowheadStartEnd" points="0,40 -5,42.5 -5,37.5" transform="rotate(0,0,40)"/><polygon xmlns="http://www.w3.org/2000/svg" class="arrowheadStartEnd" points="5,40 0,42.5 0,37.5" transform="rotate(0,5,40)"/><line xmlns="http://www.w3.org/2000/svg" y2="40" x1="0" x2="10" class="arrow" y1="40"/><line xmlns="http://www.w3.org/2000/svg" y2="40" x1="162.59539527893065" x2="177.59539527893065" class="arrow" y1="40"/><polygon xmlns="http://www.w3.org/2000/svg" class="arrowheadSeq" points="177.59539527893065,40 172.59539527893065,42.5 172.59539527893065,37.5" transform="rotate(0,177.59539527893065,40)"/><line xmlns="http://www.w3.org/2000/svg" y2="40" x1="593.4713923215866" x2="603.4713923215866" class="arrow" y1="40"/><polygon xmlns="http://www.w3.org/2000/svg" class="arrowheadStartEnd" points="603.4713923215866,40 598.4713923215866,42.5 598.4713923215866,37.5" transform="rotate(0,603.4713923215866,40)"/><polygon xmlns="http://www.w3.org/2000/svg" class="arrowheadStartEnd" points="603.4713923215866,40 598.4713923215866,42.5 598.4713923215866,37.5" transform="rotate(180,603.4713923215866,40)"/></svg:g></svg>